HIERARCHY
ROOT ui
{
	 OFFSET 0 0 0
	 CHANNELS 3 XPosition YPosition Z Position
	 EndSite
	 {
	 OFFSET 0 -1 0
	 }
}
ROOT li
{
	 OFFSET 0 0 0
	 CHANNELS 3 XPosition YPosition Z Position
	 EndSite
	 {
	 OFFSET 0 -1 0
	 }
}
ROOT ul
{
	 OFFSET 0 0 0
	 CHANNELS 3 XPosition YPosition Z Position
	 EndSite
	 {
	 OFFSET 0 -1 0
	 }
}
ROOT ll
{
	 OFFSET 0 0 0
	 CHANNELS 3 XPosition YPosition Z Position
	 EndSite
	 {
	 OFFSET 0 -1 0
	 }
}
ROOT tt
{
	 OFFSET 0 0 0
	 CHANNELS 3 XPosition YPosition Z Position
	 EndSite
	 {
	 OFFSET 0 -1 0
	 }
}
ROOT tb
{
	 OFFSET 0 0 0
	 CHANNELS 3 XPosition YPosition Z Position
	 EndSite
	 {
	 OFFSET 0 -1 0
	 }
}
ROOT td
{
	 OFFSET 0 0 0
	 CHANNELS 3 XPosition YPosition Z Position
	 EndSite
	 {
	 OFFSET 0 -1 0
	 }
}
ROOT v
{
	 OFFSET 0 0 0
	 CHANNELS 3 XPosition YPosition Z Position
	 EndSite
	 {
	 OFFSET 0 -1 0
	 }
}
ROOT bn
{
	 OFFSET 0 0 0
	 CHANNELS 3 XPosition YPosition Z Position
	 EndSite
	 {
	 OFFSET 0 -1 0
	 }
}
MOTION
Frames: 16
Frame Time: 0.002
-0.002275688886642456	-0.0011902589797973633	0		0.5488822021484375	-2.721482421875	0		-1.050546875	0.29627816772460935	0		-0.2886419067382813	-3.3027890625	0		2.361395263671875	-1.2116036376953125	0		3.996073486328125	-0.31149420166015623	0		5.52028271484375	-0.0710222396850586	0		5.8437666015625	0.23337652587890625	0		-0.19698374938964844	5.94879638671875	0		
-0.002260509967803955	-0.0012392020225524903	0		0.5709500732421875	-2.72878271484375	0		-1.0545982666015625	0.2922251892089844	0		-0.21671337890625	-3.323771240234375	0		2.36328271484375	-1.2265518798828126	0		3.97818310546875	-0.30510223388671875	0		5.4961630859375	-0.08147162628173828	0		5.838900390625	0.25474090576171876	0		-0.34469281005859376	5.9176171875	0		
-0.0022443389892578126	-0.0012898629903793336	0		0.5290928344726562	-2.7322626953125	0		-1.054600830078125	0.29210739135742186	0		-0.29126309204101564	-3.3058837890625	0		2.373134765625	-1.2455771484375	0		3.98411669921875	-0.3129744873046875	0		5.47430078125	-0.07189257049560546	0		5.83891796875	0.25529913330078124	0		-0.3450543212890625	5.91754443359375	0		
-0.0022288970947265626	-0.0013423969745635987	0		0.5593325805664062	-2.7306552734375	0		-1.05460693359375	0.29197723388671876	0		-0.24615911865234374	-3.318525146484375	0		2.34027001953125	-1.2430377197265625	0		3.955422607421875	-0.2913682556152344	0		5.469435546875	-0.062478687286376955	0		5.8438203125	0.23504351806640625	0		-0.41263436889648436	5.905314453125	0		
0.0018344839811325073	0.002552778959274292	0		0.53463671875	-2.725349609375	0		-1.0546177978515625	0.2918358154296875	0		-0.2547071990966797	-3.30548779296875	0		2.366220947265625	-1.256223388671875	0		3.94533544921875	-0.30096868896484374	0		5.4506689453125	-0.04484299087524414	0		5.8490458984375	0.27715301513671875	0		-0.3449644775390625	5.91637158203125	0		
-0.00220478892326355	-0.001452576994895935	0		0.5738796997070312	-2.726842529296875	0		-1.0637327880859375	0.28379693603515627	0		-0.22243580627441406	-3.308965087890625	0		2.327299072265625	-1.2595775146484376	0		3.9554970703125	-0.290790771484375	0		5.44760888671875	-0.0503648567199707	0		5.8490615234375	0.2779795532226563	0		-0.34647976684570314	5.917296875	0		
-0.002197782039642334	-0.0015098559856414795	0		0.5201961059570313	-2.72317578125	0		-1.06375390625	0.28363519287109373	0		-0.23399107360839844	-3.299896484375	0		2.356303955078125	-1.26976318359375	0		3.927472900390625	-0.29511199951171874	0		5.42475830078125	-0.03860225296020508	0		5.8490751953125	0.27887908935546873	0		-0.22892832946777344	5.92674609375	0		
-0.0021948320865631103	-0.001568248987197876	0		0.5744431762695312	-2.726841064453125	0		-1.0688294677734376	0.27952725219726565	0		-0.26357925415039063	-3.29461181640625	0		2.288506103515625	-1.2637415771484375	0		3.913630126953125	-0.28458810424804687	0		5.402876953125	-0.02882347297668457	0		5.84908642578125	0.2798403625488281	0		-0.4309354553222656	5.89613037109375	0		
0.0018523379564285279	0.0023239030838012697	0		0.5357551879882813	-2.72536328125	0		-1.068861328125	0.2793515930175781	0		-0.23234393310546875	-3.3050751953125	0		2.307677978515625	-1.260781005859375	0		3.903551513671875	-0.29309658813476563	0		5.39487939453125	-0.028194007873535157	0		5.85815869140625	0.23905807495117187	0		-0.36629495239257814	5.91923291015625	0		
0.0018469020128250122	0.0022654569149017333	0		0.5821492309570313	-2.717916015625	0		-0.9939032592773438	0.2782701416015625	0		-0.23979660034179687	-3.290064697265625	0		2.29386376953125	-1.256412109375	0		3.90693994140625	-0.26275485229492185	0		5.3850830078125	-0.010527294158935547	0		5.85327734375	0.26100308227539065	0		-0.3631340637207031	5.9050859375	0		
0.0018376590013504028	0.0022074329853057862	0		0.5264652099609375	-2.716240478515625	0		-0.9989912109375	0.2741587829589844	0		-0.22138504028320313	-3.286364990234375	0		2.3059013671875	-1.2643519287109375	0		3.853928955078125	-0.2647367248535156	0		5.35913671875	-0.0046635551452636715	0		5.84910498046875	0.2829390869140625	0		-0.37893267822265625	5.895166015625	0		
0.0018242830038070678	0.002149672985076904	0		0.577662109375	-2.72484033203125	0		-1.0130698852539062	0.2711530456542969	0		-0.2839384155273437	-3.27870458984375	0		2.276234375	-1.2467952880859374	0		3.86102783203125	-0.25744076538085936	0		5.3421484375	-0.0019131389856338501	0		5.83412841796875	0.2844180908203125	0		-0.3796143798828125	5.89506494140625	0		
-0.0022404670715332033	-0.0018614089488983153	0		0.5270448608398437	-2.71623828125	0		-1.0131181030273437	0.2709817810058594	0		-0.21865390014648436	-3.284554443359375	0		2.269437744140625	-1.2395185546875	0		3.84313330078125	-0.24885877990722657	0		5.3282255859375	0.006787147998809815	0		5.84390966796875	0.24364309692382813	0		-0.4143455810546875	5.8903623046875	0		
-0.0022639989852905273	-0.0019212520122528075	0		0.5313604736328125	-2.71228759765625	0		-0.9991372680664062	0.2736503601074219	0		-0.2771800231933594	-3.271954833984375	0		2.24066552734375	-1.228997802734375	0		3.828404052734375	-0.2253312225341797	0		5.30548046875	0.031567670822143554	0		5.8468310546875	0.26012225341796874	0		-0.41500518798828123	5.8902578125	0		
0.001751723051071167	0.0019706690311431883	0		0.5326327514648438	-2.71030615234375	0		-1.0091834716796875	0.27460052490234377	0		-0.20990029907226562	-3.274814453125	0		2.27085205078125	-1.221173583984375	0		3.807364013671875	-0.22775680541992188	0		5.28747119140625	0.034259552001953124	0		5.83899853515625	0.26646881103515624	0		-0.3815873107910156	5.8947626953125	0		
-0.002330780029296875	-0.0020476219654083252	0		0.5749015502929687	-2.70679736328125	0		-1.019235107421875	0.2755521545410156	0		-0.24058338928222656	-3.271546142578125	0		2.236969970703125	-1.2176304931640625	0		3.79969140625	-0.19736250305175781	0		5.26962548828125	0.05191220474243164	0		5.84387646484375	0.24644277954101562	0		-0.39630926513671877	5.8848212890625	0		
